<?xml version="1.0" encoding="UTF-8" standalone="no"?><!-- Generator: Gravit.io --><svg xmlns="http://www.w3.org/2000/svg" xmlns:xlink="http://www.w3.org/1999/xlink" style="isolation:isolate" viewBox="0 0 400 400" width="400pt" height="400pt"><defs><clipPath id="_clipPath_vavSRoQubrtpKUP21aOnrvRiElSCJcCH"><rect width="400" height="400"/></clipPath></defs><g clip-path="url(#_clipPath_vavSRoQubrtpKUP21aOnrvRiElSCJcCH)"><path d=" M 48.401 281.367 C 69.192 250.975 129.01 229 199.477 229 C 287.199 229 358.418 263.054 358.418 305 C 358.418 346.946 287.199 381 199.477 381 C 111.756 381 40.537 346.946 40.537 305 C 40.537 297.228 42.982 289.727 47.529 282.664" fill="rgb(50,48,49)"/><circle vector-effect="non-scaling-stroke" cx="199.4771696035854" cy="201.5" r="198.5" fill="rgb(255,200,87)"/><g><circle vector-effect="non-scaling-stroke" cx="197.15943781481303" cy="142.4936931435202" r="74.56568411031711" fill="rgb(50,48,49)"/><g><path d=" M 311.022 333.155 C 309.997 272.466 260.409 223.511 199.477 223.511 C 137.905 223.511 87.916 273.5 87.916 335.072" fill="rgb(50,48,49)"/><path d=" M 311.022 333.155 C 311.033 333.793 311.038 334.432 311.038 335.072" fill="rgb(50,48,49)"/></g></g><path d=" M 31.743 303.399 C 32.061 302.98 32.38 302.561 32.708 302.144" fill="rgb(50,48,49)"/></g></svg>